<?xml version="1.0" standalone="no"?>
<!DOCTYPE svg PUBLIC "-//W3C//DTD SVG 20010904//EN"
 "http://www.w3.org/TR/2001/REC-SVG-20010904/DTD/svg10.dtd">
<svg version="1.0" xmlns="http://www.w3.org/2000/svg"
 width="937.000000pt" height="1280.000000pt" viewBox="0 0 937.000000 1280.000000"
 preserveAspectRatio="xMidYMid meet">
<metadata>
Created by potrace 1.15, written by Peter Selinger 2001-2017
</metadata>
<g transform="translate(0.000000,1280.000000) scale(0.100000,-0.100000)"
fill="#000000" stroke="none">
<path d="M1725 12793 c-498 -41 -954 -168 -1098 -305 -58 -55 -49 -71 43 -80
188 -19 448 -87 633 -167 351 -150 600 -372 737 -655 89 -184 119 -309 127
-528 6 -179 -9 -321 -58 -523 -36 -147 -28 -121 -193 -620 -174 -528 -218
-705 -232 -946 -22 -376 124 -724 403 -965 458 -394 1370 -695 2653 -878 263
-38 848 -101 857 -93 1 2 -32 11 -75 21 -144 33 -442 117 -610 172 -675 223
-1212 519 -1534 845 -318 324 -430 650 -415 1208 10 368 69 723 232 1396 227
938 250 1124 165 1377 -54 162 -120 267 -236 379 -212 202 -524 321 -944 359
-106 9 -360 11 -455 3z"/>
<path d="M3640 9519 c-176 -9 -524 -37 -552 -45 -20 -6 -25 -27 -34 -143 l-7
-93 39 6 c83 13 387 45 544 57 210 16 827 16 1030 0 1282 -101 2276 -447 2806
-977 160 -159 267 -335 316 -516 33 -125 31 -310 -6 -433 -207 -690 -1255
-1247 -2691 -1430 -511 -65 -1188 -73 -1720 -19 -1480 148 -2632 718 -2855
1411 -108 336 -17 655 275 962 162 169 363 314 625 450 l146 76 -9 55 c-4 30
-7 97 -5 148 l3 93 -25 -6 c-48 -12 -296 -118 -421 -181 -638 -318 -1009 -710
-1085 -1148 -27 -150 -8 -610 42 -1036 148 -1262 621 -2427 1326 -3270 580
-692 1271 -1133 2031 -1294 223 -48 345 -60 612 -59 270 0 414 15 648 68 887
199 1699 804 2316 1728 73 109 96 137 109 132 9 -4 60 -16 112 -27 126 -27
383 -29 515 -5 199 37 376 101 552 199 551 308 946 872 1064 1524 30 161 32
479 5 629 -83 456 -318 815 -668 1017 -162 94 -328 148 -527 170 l-108 12 -6
110 c-14 278 -130 511 -381 761 -549 548 -1620 937 -2886 1050 -376 33 -770
41 -1130 24z m4496 -2389 c115 -30 284 -117 384 -198 424 -342 559 -987 333
-1592 -96 -257 -235 -473 -427 -665 -259 -259 -564 -414 -892 -456 -93 -11
-281 -8 -331 7 -22 6 -22 7 18 78 418 743 702 1698 786 2647 15 167 20 199 33
199 9 0 52 -9 96 -20z m-346 -325 c-89 -992 -382 -1900 -859 -2660 -635 -1012
-1535 -1637 -2509 -1740 -517 -55 -1041 45 -1537 295 -202 101 -331 181 -506
312 -592 442 -1082 1090 -1423 1876 -157 364 -292 793 -370 1184 -44 219 -96
561 -96 635 l0 34 83 -64 c569 -444 1509 -761 2587 -871 313 -33 477 -40 860
-40 603 0 1049 42 1585 149 756 152 1379 403 1829 736 108 81 283 243 331 307
l30 41 3 -32 c2 -18 -1 -90 -8 -162z"/>
<path d="M6651 3324 c-34 -40 -61 -77 -61 -81 0 -5 33 -21 73 -37 202 -80 466
-226 662 -364 113 -80 330 -299 394 -397 91 -139 141 -262 162 -396 14 -87 6
-250 -15 -329 -176 -648 -1102 -1189 -2411 -1409 -838 -140 -1789 -132 -2610
24 -749 143 -1388 401 -1795 725 -172 137 -334 328 -413 485 -13 28 -37 88
-53 135 -25 77 -28 99 -28 235 -1 164 8 215 64 350 115 275 434 576 833 785
l117 62 -29 37 c-54 67 -49 67 -153 15 -466 -234 -814 -543 -969 -859 -125
-255 -136 -524 -32 -775 173 -420 619 -782 1327 -1075 139 -57 515 -179 692
-224 410 -104 858 -174 1354 -213 217 -16 935 -17 1145 0 947 75 1715 261
2334 565 582 285 949 639 1076 1037 36 115 46 315 20 441 -100 497 -637 966
-1465 1281 -171 65 -150 67 -219 -18z"/>
<path d="M6181 2852 l-71 -55 113 -62 c196 -106 302 -181 425 -300 352 -337
370 -737 50 -1080 -389 -417 -1150 -694 -2133 -776 -210 -18 -704 -15 -925 5
-1139 104 -2000 492 -2239 1007 -50 109 -65 174 -65 284 1 285 209 569 584
794 45 27 81 52 81 56 0 4 -16 19 -37 34 l-37 28 -71 -40 c-300 -170 -538
-400 -632 -614 -89 -201 -85 -423 12 -615 70 -141 183 -277 323 -390 737 -594
2227 -863 3611 -652 1051 161 1840 577 2050 1081 130 311 40 632 -255 911
-160 152 -431 324 -662 419 l-51 21 -71 -56z"/>
</g>
</svg>
